<svg aria-hidden="true" style="position: absolute; width: 0; height: 0; overflow: hidden;" version="1.1" xmlns="http://www.w3.org/2000/svg" xmlns:xlink="http://www.w3.org/1999/xlink">
<defs>
<symbol id="icon-lock-closed" viewBox="0 0 24 24">
<path d="M17 10h-1v-2c0-2.205-1.794-4-4-4s-4 1.795-4 4v2h-1c-1.103 0-2 0.896-2 2v7c0 1.104 0.897 2 2 2h10c1.103 0 2-0.896 2-2v-7c0-1.104-0.897-2-2-2zM12 18.299c-0.719 0-1.3-0.58-1.3-1.299s0.581-1.301 1.3-1.301 1.3 0.582 1.3 1.301-0.581 1.299-1.3 1.299zM14 11h-4v-3c0-1.104 0.897-2 2-2s2 0.896 2 2v3z"></path>
</symbol>
<symbol id="icon-group" viewBox="0 0 24 24">
<path d="M12 14c1.381 0 2.631-0.56 3.536-1.465 0.904-0.904 1.464-2.154 1.464-3.535s-0.56-2.631-1.464-3.535c-0.905-0.905-2.155-1.465-3.536-1.465s-2.631 0.56-3.536 1.465c-0.904 0.904-1.464 2.154-1.464 3.535s0.56 2.631 1.464 3.535c0.905 0.905 2.155 1.465 3.536 1.465z"></path>
<path d="M20 15c0.69 0 1.315-0.279 1.768-0.731s0.732-1.077 0.732-1.769c0-0.69-0.279-1.315-0.732-1.768s-1.078-0.732-1.768-0.732c-0.691 0-1.316 0.279-1.769 0.732-0.452 0.453-0.731 1.078-0.731 1.768 0 0.691 0.279 1.316 0.731 1.769s1.078 0.731 1.769 0.731z"></path>
<path d="M20 15.59c-1.331 0-2.332 0.406-2.917 0.968-1.115-0.917-2.878-1.558-5.083-1.558-2.266 0-3.995 0.648-5.092 1.564-0.596-0.565-1.608-0.974-2.908-0.974-2.188 0-3.5 1.090-3.5 2.182 0 0.545 1.312 1.092 3.5 1.092 0.604 0 1.146-0.051 1.623-0.133-0.010 0.091-0.040 0.18-0.040 0.27 0 1 2.406 2 6.417 2 3.762 0 6.417-1 6.417-2 0-0.085-0.011-0.17-0.020-0.255 0.463 0.073 0.995 0.118 1.603 0.118 2.051 0 3.5-0.547 3.5-1.092 0-1.092-1.373-2.182-3.5-2.182z"></path>
<path d="M4 15c0.69 0 1.315-0.279 1.768-0.732s0.732-1.078 0.732-1.768c0-0.689-0.279-1.314-0.732-1.768-0.453-0.452-1.078-0.732-1.768-0.732-0.691 0-1.316 0.28-1.769 0.732-0.452 0.454-0.731 1.079-0.731 1.768s0.279 1.315 0.731 1.768c0.453 0.453 1.078 0.732 1.769 0.732z"></path>
</symbol>
<symbol id="icon-chevron-right-outline" viewBox="0 0 24 24">
<path d="M10 20c-0.802 0-1.555-0.312-2.122-0.879-0.566-0.566-0.878-1.32-0.878-2.121s0.312-1.555 0.879-2.122l2.878-2.878-2.878-2.879c-0.567-0.566-0.879-1.32-0.879-2.121s0.312-1.555 0.879-2.122c1.133-1.132 3.109-1.133 4.243 0.001l7.121 7.121-7.122 7.121c-0.566 0.567-1.319 0.879-2.121 0.879zM10 6c-0.268 0-0.518 0.104-0.707 0.292-0.189 0.19-0.293 0.441-0.293 0.708s0.104 0.518 0.293 0.707l4.292 4.293-4.292 4.293c-0.189 0.189-0.293 0.439-0.293 0.707s0.104 0.518 0.293 0.707c0.378 0.379 1.037 0.378 1.414 0.001l5.708-5.708-5.708-5.707c-0.189-0.189-0.439-0.293-0.707-0.293z"></path>
</symbol>
<symbol id="icon-stopwatch" viewBox="0 0 24 24">
<path d="M19.414 8.902c0.104-0.048 0.206-0.108 0.293-0.195l0.5-0.5c0.391-0.391 0.391-1.023 0-1.414s-1.023-0.391-1.414 0l-0.5 0.5c-0.051 0.051-0.077 0.115-0.115 0.173-1.387-1.312-3.188-2.19-5.189-2.41 0.001-0.019 0.011-0.036 0.011-0.056v-1h1c0.55 0 1-0.45 1-1s-0.45-1-1-1h-4c-0.55 0-1 0.45-1 1s0.45 1 1 1h1v1c0 0.020 0.010 0.037 0.012 0.057-4.506 0.492-8.012 4.307-8.012 8.943 0 4.971 4.029 9 9 9s9-4.029 9-9c0-1.894-0.588-3.648-1.586-5.098zM12 21c-3.859 0-7-3.14-7-7s3.141-7 7-7 7 3.14 7 7-3.141 7-7 7z"></path>
<path d="M13 13v-2c0-0.55-0.45-1-1-1s-1 0.45-1 1v3c0 0.55 0.45 1 1 1h3c0.55 0 1-0.45 1-1s-0.45-1-1-1h-2z"></path>
<path d="M12 8c-3.312 0-6 2.688-6 6s2.688 6 6 6 6-2.688 6-6-2.688-6-6-6zM12 19c-2.757 0-5-2.243-5-5s2.243-5 5-5 5 2.243 5 5-2.243 5-5 5z"></path>
</symbol>
<symbol id="icon-bell-o" viewBox="0 0 28 28">
<path d="M14.25 26.5c0-0.141-0.109-0.25-0.25-0.25-1.234 0-2.25-1.016-2.25-2.25 0-0.141-0.109-0.25-0.25-0.25s-0.25 0.109-0.25 0.25c0 1.516 1.234 2.75 2.75 2.75 0.141 0 0.25-0.109 0.25-0.25zM3.844 22h20.312c-2.797-3.156-4.156-7.438-4.156-13 0-2.016-1.906-5-6-5s-6 2.984-6 5c0 5.563-1.359 9.844-4.156 13zM27 22c0 1.094-0.906 2-2 2h-7c0 2.203-1.797 4-4 4s-4-1.797-4-4h-7c-1.094 0-2-0.906-2-2 2.312-1.953 5-5.453 5-13 0-3 2.484-6.281 6.625-6.891-0.078-0.187-0.125-0.391-0.125-0.609 0-0.828 0.672-1.5 1.5-1.5s1.5 0.672 1.5 1.5c0 0.219-0.047 0.422-0.125 0.609 4.141 0.609 6.625 3.891 6.625 6.891 0 7.547 2.688 11.047 5 13z"></path>
</symbol>
<symbol id="icon-globe" viewBox="0 0 24 28">
<path d="M12 2c6.625 0 12 5.375 12 12s-5.375 12-12 12-12-5.375-12-12 5.375-12 12-12zM16.281 10.141c-0.125 0.094-0.203 0.266-0.359 0.297 0.078-0.016 0.156-0.297 0.203-0.359 0.094-0.109 0.219-0.172 0.344-0.234 0.266-0.109 0.531-0.141 0.812-0.187 0.266-0.063 0.594-0.063 0.797 0.172-0.047-0.047 0.328-0.375 0.375-0.391 0.141-0.078 0.375-0.047 0.469-0.187 0.031-0.047 0.031-0.344 0.031-0.344-0.266 0.031-0.359-0.219-0.375-0.438 0 0.016-0.031 0.063-0.094 0.125 0.016-0.234-0.281-0.063-0.391-0.094-0.359-0.094-0.313-0.344-0.422-0.609-0.063-0.141-0.234-0.187-0.297-0.328-0.063-0.094-0.094-0.297-0.234-0.313-0.094-0.016-0.266 0.328-0.297 0.313-0.141-0.078-0.203 0.031-0.313 0.094-0.094 0.063-0.172 0.031-0.266 0.078 0.281-0.094-0.125-0.25-0.266-0.219 0.219-0.063 0.109-0.297-0.016-0.406h0.078c-0.031-0.141-0.469-0.266-0.609-0.359s-0.891-0.25-1.047-0.156c-0.187 0.109 0.047 0.422 0.047 0.578 0.016 0.187-0.187 0.234-0.187 0.391 0 0.266 0.5 0.219 0.375 0.578-0.078 0.219-0.375 0.266-0.5 0.438-0.125 0.156 0.016 0.438 0.141 0.547 0.125 0.094-0.219 0.25-0.266 0.281-0.266 0.125-0.469-0.266-0.531-0.5-0.047-0.172-0.063-0.375-0.25-0.469-0.094-0.031-0.391-0.078-0.453 0.016-0.094-0.234-0.422-0.328-0.641-0.406-0.313-0.109-0.578-0.109-0.906-0.063 0.109-0.016-0.031-0.5-0.297-0.422 0.078-0.156 0.047-0.328 0.078-0.484 0.031-0.125 0.094-0.25 0.187-0.359 0.031-0.063 0.375-0.422 0.266-0.438 0.266 0.031 0.562 0.047 0.781-0.172 0.141-0.141 0.203-0.375 0.344-0.531 0.203-0.234 0.453 0.063 0.672 0.078 0.313 0.016 0.297-0.328 0.125-0.484 0.203 0.016 0.031-0.359-0.078-0.406-0.141-0.047-0.672 0.094-0.391 0.203-0.063-0.031-0.438 0.75-0.656 0.359-0.063-0.078-0.094-0.406-0.234-0.422-0.125 0-0.203 0.141-0.25 0.234 0.078-0.203-0.438-0.344-0.547-0.359 0.234-0.156 0.047-0.328-0.125-0.422-0.125-0.078-0.516-0.141-0.625-0.016-0.297 0.359 0.313 0.406 0.469 0.5 0.047 0.031 0.234 0.141 0.125 0.219-0.094 0.047-0.375 0.125-0.406 0.187-0.094 0.141 0.109 0.297-0.031 0.438-0.141-0.141-0.141-0.375-0.25-0.531 0.141 0.172-0.562 0.078-0.547 0.078-0.234 0-0.609 0.156-0.781-0.078-0.031-0.063-0.031-0.422 0.063-0.344-0.141-0.109-0.234-0.219-0.328-0.281-0.516 0.172-1 0.391-1.469 0.641 0.063 0.016 0.109 0.016 0.187-0.016 0.125-0.047 0.234-0.125 0.359-0.187 0.156-0.063 0.484-0.25 0.656-0.109 0.016-0.031 0.063-0.063 0.078-0.078 0.109 0.125 0.219 0.25 0.313 0.391-0.125-0.063-0.328-0.031-0.469-0.016-0.109 0.031-0.297 0.063-0.344 0.187 0.047 0.078 0.109 0.203 0.078 0.281-0.203-0.141-0.359-0.375-0.641-0.406-0.125 0-0.25 0-0.344 0.016-1.5 0.828-2.766 2.031-3.672 3.469 0.063 0.063 0.125 0.109 0.187 0.125 0.156 0.047 0 0.5 0.297 0.266 0.094 0.078 0.109 0.187 0.047 0.297 0.016-0.016 0.641 0.391 0.688 0.422 0.109 0.094 0.281 0.203 0.328 0.328 0.031 0.109-0.063 0.234-0.156 0.281-0.016-0.031-0.25-0.266-0.281-0.203-0.047 0.078 0 0.5 0.172 0.484-0.25 0.016-0.141 0.984-0.203 1.172 0 0.016 0.031 0.016 0.031 0.016-0.047 0.187 0.109 0.922 0.422 0.844-0.203 0.047 0.359 0.766 0.438 0.812 0.203 0.141 0.438 0.234 0.578 0.438 0.156 0.219 0.156 0.547 0.375 0.719-0.063 0.187 0.328 0.406 0.313 0.672-0.031 0.016-0.047 0.016-0.078 0.031 0.078 0.219 0.375 0.219 0.484 0.422 0.063 0.125 0 0.422 0.203 0.359 0.031-0.344-0.203-0.688-0.375-0.969-0.094-0.156-0.187-0.297-0.266-0.453-0.078-0.141-0.094-0.313-0.156-0.469 0.063 0.016 0.406 0.141 0.375 0.187-0.125 0.313 0.5 0.859 0.672 1.062 0.047 0.047 0.406 0.516 0.219 0.516 0.203 0 0.484 0.313 0.578 0.469 0.141 0.234 0.109 0.531 0.203 0.781 0.094 0.313 0.531 0.453 0.781 0.594 0.219 0.109 0.406 0.266 0.625 0.344 0.328 0.125 0.406 0.016 0.688-0.031 0.406-0.063 0.453 0.391 0.781 0.562 0.203 0.109 0.641 0.266 0.859 0.172-0.094 0.031 0.328 0.672 0.359 0.719 0.141 0.187 0.406 0.281 0.562 0.469 0.047-0.031 0.094-0.078 0.109-0.141-0.063 0.172 0.234 0.5 0.391 0.469 0.172-0.031 0.219-0.375 0.219-0.5-0.313 0.156-0.594 0.031-0.766-0.281-0.031-0.078-0.281-0.516-0.063-0.516 0.297 0 0.094-0.234 0.063-0.453s-0.25-0.359-0.359-0.547c-0.094 0.187-0.406 0.141-0.5-0.016 0 0.047-0.047 0.125-0.047 0.187-0.078 0-0.156 0.016-0.234-0.016 0.031-0.187 0.047-0.422 0.094-0.625 0.078-0.281 0.594-0.828-0.078-0.797-0.234 0.016-0.328 0.109-0.406 0.313-0.078 0.187-0.047 0.359-0.266 0.453-0.141 0.063-0.609 0.031-0.75-0.047-0.297-0.172-0.5-0.719-0.5-1.031-0.016-0.422 0.203-0.797 0-1.188 0.094-0.078 0.187-0.234 0.297-0.313 0.094-0.063 0.203 0.047 0.25-0.141-0.047-0.031-0.109-0.094-0.125-0.094 0.234 0.109 0.672-0.156 0.875 0 0.125 0.094 0.266 0.125 0.344-0.031 0.016-0.047-0.109-0.234-0.047-0.359 0.047 0.266 0.219 0.313 0.453 0.141 0.094 0.094 0.344 0.063 0.516 0.156 0.172 0.109 0.203 0.281 0.406 0.047 0.125 0.187 0.141 0.187 0.187 0.375 0.047 0.172 0.141 0.609 0.297 0.688 0.328 0.203 0.25-0.344 0.219-0.531-0.016-0.016-0.016-0.531-0.031-0.531-0.5-0.109-0.313-0.5-0.031-0.766 0.047-0.031 0.406-0.156 0.562-0.281 0.141-0.125 0.313-0.344 0.234-0.547 0.078 0 0.141-0.063 0.172-0.141-0.047-0.016-0.234-0.172-0.266-0.156 0.109-0.063 0.094-0.156 0.031-0.25 0.156-0.094 0.078-0.266 0.234-0.328 0.172 0.234 0.516-0.031 0.344-0.219 0.156-0.219 0.516-0.109 0.609-0.313 0.234 0.063 0.063-0.234 0.187-0.406 0.109-0.141 0.297-0.141 0.438-0.219 0 0.016 0.391-0.219 0.266-0.234 0.266 0.031 0.797-0.25 0.391-0.484 0.063-0.141-0.141-0.203-0.281-0.234 0.109-0.031 0.25 0.031 0.344-0.031 0.203-0.141 0.063-0.203-0.109-0.25-0.219-0.063-0.5 0.078-0.672 0.187zM13.734 23.844c2.141-0.375 4.047-1.437 5.484-2.953-0.094-0.094-0.266-0.063-0.391-0.125-0.125-0.047-0.219-0.094-0.375-0.125 0.031-0.313-0.313-0.422-0.531-0.578-0.203-0.156-0.328-0.328-0.625-0.266-0.031 0.016-0.344 0.125-0.281 0.187-0.203-0.172-0.297-0.266-0.562-0.344-0.25-0.078-0.422-0.391-0.672-0.109-0.125 0.125-0.063 0.313-0.125 0.438-0.203-0.172 0.187-0.375 0.031-0.562-0.187-0.219-0.516 0.141-0.672 0.234-0.094 0.078-0.203 0.109-0.266 0.203-0.078 0.109-0.109 0.25-0.172 0.359-0.047-0.125-0.313-0.094-0.328-0.187 0.063 0.375 0.063 0.766 0.141 1.141 0.047 0.219 0 0.578-0.187 0.75s-0.422 0.359-0.453 0.625c-0.031 0.187 0.016 0.359 0.187 0.406 0.016 0.234-0.25 0.406-0.234 0.656 0 0.016 0.016 0.172 0.031 0.25z"></path>
</symbol>
<symbol id="icon-suitcase" viewBox="0 0 32 32">
<path d="M27 29h-23c-1.105 0-2-0.896-2-2v-12c0 0 5.221 2.685 10 3.784v1.216c0 0.553 0.447 1 1 1h5c0.552 0 1-0.447 1-1v-1.216c4.778-1.099 10-3.784 10-3.784v12c0 1.104-0.896 2-2 2zM17 17c0.552 0 1 0.447 1 1v1c0 0.553-0.448 1-1 1h-3c-0.553 0-1-0.447-1-1v-1c0-0.553 0.447-1 1-1h3zM19 17c0-0.553-0.448-1-1-1h-5c-0.553 0-1 0.447-1 1v0.896c-4.779-1.132-10-3.896-10-3.896v-4c0-1.104 0.895-2 2-2h6v-2c0-1.104 0.896-2 2-2h7c1.104 0 2 0.896 2 2v2h6c1.104 0 2 0.896 2 2v4c0 0-5.222 2.764-10 3.896v-0.896zM19 7c0-0.553-0.448-1-1-1h-5c-0.553 0-1 0.447-1 1 0 0.552 0 1 0 1h7c0 0 0-0.448 0-1z"></path>
</symbol>
<symbol id="icon-headphones" viewBox="0 0 32 32">
<path d="M24 28v-2h-0.025c0.009-0.166 0.025-0.331 0.025-0.5v-11c0-4.694-3.806-8.5-8.5-8.5s-8.5 3.806-8.5 8.5v11c0 0.169 0.016 0.334 0.025 0.5h-0.025v2c0 0-5-0.084-5-5.5 0-3.072 1.607-4.427 3-5.025v-2.975c0-5.799 4.701-10.5 10.5-10.5s10.5 4.701 10.5 10.5v2.975c1.393 0.599 3 1.953 3 5.025 0 5.416-5 5.5-5 5.5zM9 28h-1v-11h1v11zM23 28h-1v-11h1v11z"></path>
</symbol>
<symbol id="icon-diamond" viewBox="0 0 32 32">
<path d="M2.103 12.052l13.398 16.629-5.373-16.629h-8.025zM11.584 12.052l4.745 16.663 4.083-16.663h-8.828zM17.051 28.681l12.898-16.629h-7.963l-4.935 16.629zM29.979 10.964l-3.867-6.612-3.869 6.612h7.736zM24.896 3.973h-7.736l3.867 6.839 3.869-6.839zM19.838 10.964l-3.867-6.612-3.868 6.612h7.735zM14.839 3.973h-7.735l3.868 6.839 3.867-6.839zM5.889 4.352l-3.867 6.612h7.735l-3.868-6.612z"></path>
</symbol>
<symbol id="icon-stats" viewBox="0 0 32 32">
<path d="M5.998 5h-0.987v23h20v-0.963l-18.996-0.049-0.017-21.988zM8.011 25h5v-10.875l-5 5v5.875zM14.011 25h5v-9.875l-2 2-3-3v10.875zM20.011 25h5v-15.187l-5 5v10.187zM13.387 11.067l3.62 3.6 7.148-7.112 1.834 1.844-0.044-4.399-4.415 0.023 1.717 1.722-6.242 6.26-3.689-3.703-5.623 5.604 0.939 0.912 4.755-4.751z"></path>
</symbol>
<symbol id="icon-dollar" viewBox="0 0 32 32">
<path d="M0 25v-18h32v18h-32zM2 8.938v14.062h28v-14.062h-28zM21 16c0-3.313-2.238-6-5-6h13v12h-13c2.762 0 5-2.687 5-6zM25 18c0.828 0 1.5-0.896 1.5-2s-0.672-2-1.5-2-1.5 0.896-1.5 2 0.672 2 1.5 2zM18.118 13.478c-0.015 0.055-0.036 0.094-0.062 0.119-0.027 0.025-0.063 0.037-0.109 0.037s-0.118-0.028-0.219-0.086c-0.1-0.059-0.223-0.121-0.368-0.189-0.146-0.068-0.314-0.13-0.506-0.187s-0.402-0.083-0.631-0.083c-0.18 0-0.336 0.021-0.469 0.065s-0.245 0.104-0.334 0.18c-0.090 0.077-0.156 0.17-0.2 0.277s-0.065 0.222-0.065 0.342c0 0.18 0.049 0.335 0.147 0.466s0.229 0.248 0.394 0.35c0.165 0.103 0.351 0.198 0.56 0.287 0.207 0.090 0.42 0.185 0.637 0.284 0.217 0.101 0.429 0.214 0.637 0.341s0.395 0.279 0.557 0.456 0.293 0.385 0.394 0.624c0.1 0.24 0.149 0.521 0.149 0.847 0 0.425-0.078 0.797-0.236 1.118s-0.373 0.588-0.645 0.802c-0.271 0.215-0.587 0.376-0.949 0.484-0.046 0.014-0.096 0.020-0.143 0.031v1.092h-0.983v-0.963c-0.013 0-0.024 0.002-0.036 0.002-0.279 0-0.539-0.022-0.778-0.067s-0.451-0.101-0.634-0.164c-0.184-0.064-0.336-0.131-0.459-0.201s-0.211-0.132-0.265-0.186c-0.054-0.054-0.093-0.132-0.116-0.234-0.023-0.103-0.035-0.249-0.035-0.441 0-0.129 0.004-0.237 0.013-0.325s0.022-0.158 0.041-0.213 0.043-0.093 0.075-0.116c0.031-0.022 0.067-0.034 0.109-0.034 0.058 0 0.14 0.034 0.247 0.103s0.243 0.145 0.409 0.228c0.167 0.084 0.365 0.159 0.597 0.229 0.231 0.068 0.499 0.103 0.803 0.103 0.2 0 0.379-0.024 0.537-0.072s0.293-0.115 0.403-0.203 0.194-0.196 0.253-0.325c0.059-0.13 0.088-0.273 0.088-0.433 0-0.183-0.051-0.34-0.15-0.472-0.1-0.131-0.23-0.247-0.391-0.35-0.16-0.102-0.342-0.197-0.546-0.287s-0.414-0.185-0.631-0.284c-0.216-0.1-0.427-0.213-0.631-0.341s-0.386-0.278-0.546-0.455c-0.16-0.177-0.291-0.387-0.39-0.628s-0.15-0.531-0.15-0.868c0-0.388 0.072-0.728 0.215-1.021s0.337-0.537 0.581-0.73 0.531-0.338 0.862-0.434c0.17-0.050 0.346-0.085 0.526-0.109v-1.034h0.983v1.034c0.039 0.005 0.078 0.003 0.117 0.009 0.191 0.029 0.371 0.068 0.537 0.118 0.167 0.049 0.314 0.104 0.444 0.167 0.129 0.062 0.214 0.113 0.256 0.155s0.069 0.076 0.085 0.105c0.014 0.029 0.026 0.068 0.037 0.116s0.018 0.108 0.021 0.182c0.004 0.072 0.006 0.163 0.006 0.271 0 0.121-0.003 0.224-0.009 0.308-0.009 0.079-0.019 0.149-0.034 0.203zM11 16c0 3.313 2.238 6 5 6h-13v-12h13c-2.762 0-5 2.687-5 6zM7 14c-0.829 0-1.5 0.896-1.5 2s0.671 2 1.5 2c0.828 0 1.5-0.896 1.5-2s-0.672-2-1.5-2z"></path>
</symbol>
<symbol id="icon-pig" viewBox="0 0 32 32">
<path d="M24.674 21.909c0 0 3.33-2.278 3.33-6.771 0-6.688-7.088-9.161-10.899-9.095-3.812 0.067-4.948 1.070-4.948 1.070s-1.297-0.943-2.672-1.733c-1.052-0.41-1.296-0.469-2.027-0.234-0.585 0-0.217 0.974 0.018 1.325 0.233 0.351 1.366 2.29 1.366 2.29s-2.378 2.449-2.554 4.059c0-0.029-1.12-0.009-1.734-0.009s-0.556 0.669-0.556 0.669l0.017 4.714c0 0-0.038 0.669 0.519 0.669 0.556 0 1.738 0.013 1.738 0.013s1.663 2.415 2.717 2.854c0 0.029-0.911 2.503-0.911 2.503s-0.439 0.761 0.351 1.054c0.79 0.292 2.851 1.157 3.729 1.421s1.003-0.334 1.003-0.334l0.869-1.877 5.685 0.009 0.869 1.935c0 0 0.167 0.898 1.337 0.401 1.171-0.497 2.449-1.087 3.415-1.584 0.965-0.497 0.33-1.426 0.33-1.426l-0.992-1.923zM9.322 13.764c-0.533 0-0.965-0.433-0.965-0.966s0.432-0.965 0.965-0.965 0.966 0.432 0.966 0.965-0.433 0.966-0.966 0.966zM22.925 10.756c-0.308 0.365-0.509 0.096-0.757 0.023 0 0-1.051-0.975-2.595-1.43-1.599-0.47-3.282-0.243-3.282-0.243-0.248-0.073-0.549-0.081-0.551-0.464 0.013-0.473 0.587-0.477 0.58-0.493 0 0 1.894-0.175 3.479 0.291 1.559 0.458 2.75 1.454 2.75 1.454s0.637 0.439 0.376 0.862z"></path>
</symbol>
<symbol id="icon-rocket" viewBox="0 0 32 32">
<path d="M23.371 29.529c0 0 0.335-2.012-1.731-4.469 2.011-5.641 2.29-10.778 2.29-10.778s4.133 0.95 4.133 5.026c-0.001 6.981-4.692 10.221-4.692 10.221zM11.979 27.078c0 0-2.768-8.883-2.768-12.568 0-1.658 0.187-3.133 0.478-4.472h12.61c0.293 1.34 0.481 2.816 0.481 4.473 0 3.629-2.76 12.567-2.76 12.567h-8.041zM15.99 12.069c-1.418 0-2.568 1.15-2.568 2.569 0 1.418 1.15 2.569 2.568 2.569s2.569-1.15 2.569-2.569c0.001-1.419-1.15-2.569-2.569-2.569zM15.438 0.596v-3.498h1v3.409c1.143 0.832 4.236 3.478 5.635 8.575h-12.16c1.352-4.957 4.296-7.574 5.525-8.486zM8.629 29.529c0 0-4.691-3.24-4.691-10.221 0-4.076 4.133-5.026 4.133-5.026s0.279 5.137 2.289 10.778c-2.067 2.458-1.731 4.469-1.731 4.469zM17.691 30.045l-0.838-0.838-0.893 2.793-1.062-2.793-0.726 1.451-1.062-2.625h5.752l-1.171 2.012z"></path>
</symbol>
<symbol id="icon-target" viewBox="0 0 32 32">
<path d="M28.122 3.584l-2.147 1.898-1.303 0.020-2.73 2.855c1.76 1.87 2.846 4.383 2.846 7.154 0 5.773-4.681 10.455-10.455 10.455s-10.454-4.682-10.454-10.455c0-5.774 4.681-10.455 10.454-10.455 2.645 0 5.053 0.989 6.894 2.608l2.635-2.635 0.002-1.161 2.022-2.335-0.002 2.079 2.238-0.028zM20.885 9.414l-2.658 2.659c0.9 0.977 1.463 2.27 1.463 3.703 0 3.025-2.451 5.476-5.476 5.476s-5.477-2.451-5.477-5.476c0-3.024 2.452-5.477 5.477-5.477 1.231 0 2.355 0.421 3.271 1.107l2.686-2.686c-1.569-1.35-3.605-2.171-5.838-2.171-4.949 0-8.961 4.013-8.961 8.962s4.012 8.96 8.961 8.96 8.961-4.012 8.961-8.96c-0.001-2.358-0.919-4.497-2.409-6.097zM14.172 17.352c-0.824 0-1.493-0.668-1.493-1.493s0.669-1.494 1.493-1.494c0.104 0 0.196 0.039 0.295 0.060l2.313-2.313c-0.728-0.511-1.609-0.816-2.566-0.816-2.475 0-4.48 2.007-4.48 4.481s2.006 4.48 4.48 4.48 4.48-2.006 4.48-4.48c0-1.158-0.451-2.203-1.173-2.999l-2.185 2.186c0.193 0.252 0.329 0.554 0.329 0.896 0.001 0.824-0.668 1.492-1.493 1.492zM9.855 26.748c0.297 0.15 0.602 0.285 0.915 0.406l-1.768 3.062c-0.138 0.238-0.442 0.318-0.681 0.182-0.237-0.137-0.319-0.441-0.182-0.68l1.716-2.97zM14.856 27.531v1.395c0 0.275-0.224 0.498-0.498 0.498-0.275 0-0.498-0.223-0.498-0.498v-1.395c0.166 0.008 0.33 0.025 0.498 0.025s0.332-0.017 0.498-0.025zM20.951 29.719c0.137 0.238 0.056 0.543-0.183 0.68s-0.542 0.057-0.681-0.182l-1.767-3.062c0.312-0.121 0.618-0.256 0.915-0.406l1.716 2.97z"></path>
</symbol>
<symbol id="icon-chevron-with-circle-up" viewBox="0 0 20 20">
<path d="M10.359 7.785c-0.199-0.196-0.52-0.196-0.717 0l-2.864 2.807c-0.199 0.195-0.198 0.514 0 0.71 0.197 0.196 0.518 0.196 0.717 0l2.505-2.302 2.506 2.302c0.198 0.196 0.518 0.196 0.718 0 0.197-0.196 0.197-0.515 0-0.71l-2.865-2.807zM10 0.4c-5.302 0-9.6 4.298-9.6 9.6 0 5.303 4.298 9.6 9.6 9.6s9.6-4.297 9.6-9.6c0-5.302-4.298-9.6-9.6-9.6zM10 18.354c-4.615 0-8.354-3.74-8.354-8.354s3.739-8.354 8.354-8.354c4.613 0 8.354 3.74 8.354 8.354s-3.741 8.354-8.354 8.354z"></path>
</symbol>
<symbol id="icon-shield" viewBox="0 0 20 20">
<path d="M17.604 3.332c-4.614 0.668-5.529-0.499-7.604-2.332-2.075 1.833-2.99 3-7.604 2.332-2.459 12.248 7.604 15.668 7.604 15.668s10.063-3.42 7.604-15.668zM12.473 13.309l-2.473-1.3-2.472 1.3 0.472-2.753-2-1.95 2.764-0.401 1.236-2.505 1.236 2.505 2.764 0.401-2 1.949 0.473 2.754z"></path>
</symbol>
</defs>
</svg>
