<svg xmlns="http://www.w3.org/2000/svg" version="1.1" xmlns:xlink="http://www.w3.org/1999/xlink" xmlns:svgjs="http://svgjs.dev/svgjs" viewBox="0 0 600 600"><path d="M353.5307922363281,23.12826919555664C281.16068267822266,20.331356048583984,169.28417015075684,72.94827079772949,114.39476013183594,104.93795776367188C59.50535011291504,136.92764472961426,36.081210454305015,163.84793090820312,24.194332122802734,215.06639099121094C12.307453791300455,266.28485107421875,10.55938275655111,360.44852447509766,43.073490142822266,412.24871826171875C75.58759752909342,464.04891204833984,146.9088649749756,500.98765055338544,219.2789764404297,525.8675537109375C291.6490879058838,550.7474568684896,415.93688710530597,576.2119344075521,477.2941589355469,561.5281372070312C538.6514307657877,546.8443400065104,569.0678660074869,458.3919982910156,587.422607421875,437.7647705078125C605.7773488362631,417.1375427246094,593.8904724121094,490.4389928181966,587.422607421875,437.7647705078125C580.9547424316406,385.0905481974284,587.5973866780599,190.82552019755047,548.6154174804688,121.71943664550781C509.6334482828776,52.613353093465165,425.9009017944336,25.925182342529297,353.5307922363281,23.12826919555664C281.16068267822266,20.331356048583984,169.28417015075684,72.94827079772949,114.39476013183594,104.93795776367188" fill="url(&quot;#SvgjsRadialGradient1003&quot;)" fill-opacity="0.71"></path><defs><radialGradient id="SvgjsRadialGradient1003" r="0.5"><stop stop-color="#97ef13" offset="0"></stop><stop stop-color="#f5f2eb" offset="1"></stop></radialGradient></defs></svg>